<?xml version="1.0" encoding="UTF-8"?>
<svg width="39px" height="40px" viewBox="0 0 39 40" version="1.1" xmlns="http://www.w3.org/2000/svg" xmlns:xlink="http://www.w3.org/1999/xlink">
    <title>Asset 42@1.5x</title>
    <defs>
        <radialGradient cx="50%" cy="50.1401074%" fx="50%" fy="50.1401074%" r="52.5958556%" gradientTransform="translate(0.500000,0.501401),scale(1.000000,0.968325),translate(-0.500000,-0.501401)" id="radialGradient-1">
            <stop stop-color="#02091B" offset="0%"></stop>
            <stop stop-color="#003DE6" offset="90%"></stop>
        </radialGradient>
        <radialGradient cx="49.8765432%" cy="49.9780413%" fx="49.8765432%" fy="49.9780413%" r="75.0617284%" gradientTransform="translate(0.498765,0.499780),scale(1.000000,0.533597),translate(-0.498765,-0.499780)" id="radialGradient-2">
            <stop stop-color="#02091B" offset="0%"></stop>
            <stop stop-color="#020B23" offset="10%"></stop>
            <stop stop-color="#021038" offset="26%"></stop>
            <stop stop-color="#01195B" offset="45%"></stop>
            <stop stop-color="#01268C" offset="66%"></stop>
            <stop stop-color="#0036C9" offset="90%"></stop>
            <stop stop-color="#003DE6" offset="100%"></stop>
        </radialGradient>
    </defs>
    <g id="Web---Marqvision" stroke="none" stroke-width="1" fill="none" fill-rule="evenodd">
        <g id="Case-Study-Main" transform="translate(-550.000000, -415.000000)">
            <g id="Asset-42" transform="translate(551.000000, 416.000000)">
                <path d="M36.7153846,37.4079487 L34.305641,9.89512821 C34.2861882,9.71621549 34.1345794,9.58099686 33.9546154,9.58205128 L27.7025641,9.58205128 C27.7025641,4.60440796 23.6673869,0.569230769 18.6897436,0.569230769 C13.7121003,0.569230769 9.67692308,4.60440796 9.67692308,9.58205128 L3.42487179,9.58205128 C3.24490774,9.58099686 3.09329897,9.71621549 3.07384615,9.89512821 L0.664102564,37.4079487 C0.650323215,37.5089485 0.681128629,37.6109499 0.748511045,37.6874381 C0.815893461,37.7639262 0.913197094,37.8073459 1.01512821,37.8064251 L36.364359,37.8064251 C36.4662901,37.8073459 36.5635937,37.7639262 36.6309761,37.6874381 C36.6983586,37.6109499 36.729164,37.5089485 36.7153846,37.4079487 Z M18.6897436,3.85179487 C21.8536595,3.8559983 24.4377058,6.38112504 24.5148718,9.54410256 L12.8646154,9.54410256 C12.9417813,6.38112504 15.5258277,3.8559983 18.6897436,3.85179487 Z" id="Shape" stroke="url(#radialGradient-1)" stroke-width="1.4"></path>
                <path d="M19.7712821,32.0002564 L19.7712821,34.5428205 L18.025641,34.5428205 L18.025641,32.0192308 C16.0207508,31.914589 14.1623483,30.9368474 12.9405128,29.3438462 L14.2307692,28.1010256 C15.0705441,29.4186058 16.4703532,30.2759888 18.025641,30.4253846 L18.025641,23.784359 C15.9384615,23.0633333 13.5761538,22.095641 13.5761538,19.4392308 C13.5761538,17.1907692 15.2174359,15.5020513 18.0066667,15.2553846 L18.0066667,12.9405128 L19.7617949,12.9405128 L19.7617949,15.2553846 C21.5312249,15.3880182 23.1521956,16.2939568 24.1923077,17.7315385 L22.7692308,18.7941026 C22.1133448,17.6949048 20.992287,16.9545177 19.7238462,16.7828205 L19.7238462,22.6174359 C21.9153846,23.3764103 24.4674359,24.3251282 24.4674359,27.3610256 C24.4484615,29.5430769 22.6458974,31.6587179 19.7712821,32.0002564 Z M18.025641,22.0292308 L18.025641,16.7448718 C16.5566025,16.765278 15.3706627,17.9512179 15.3502564,19.4202564 C15.3597436,20.8148718 16.5930769,21.4884615 18.025641,22.0292308 Z M19.7333333,24.3441026 L19.7333333,30.3589744 C21.3493894,30.2691494 22.6189226,28.941533 22.6364103,27.3230769 C22.6458974,25.6723077 21.2987179,24.9133333 19.7428205,24.3441026 L19.7333333,24.3441026 Z" id="Shape" fill="url(#radialGradient-2)" fill-rule="nonzero"></path>
            </g>
        </g>
    </g>
</svg>