<?xml version="1.0" encoding="UTF-8"?>
<svg width="40px" height="40px" viewBox="0 0 40 40" version="1.1" xmlns="http://www.w3.org/2000/svg" xmlns:xlink="http://www.w3.org/1999/xlink">
    <title>Asset 43@1.5x</title>
    <defs>
        <radialGradient cx="50%" cy="50%" fx="50%" fy="50%" r="51.75%" id="radialGradient-1">
            <stop stop-color="#02091B" offset="0%"></stop>
            <stop stop-color="#003DE6" offset="90%"></stop>
        </radialGradient>
    </defs>
    <g id="Web---Marqvision" stroke="none" stroke-width="1" fill="none" fill-rule="evenodd">
        <g id="Case-Study-Main" transform="translate(-1011.000000, -414.000000)" stroke="url(#radialGradient-1)" stroke-width="1.4">
            <g id="Asset-43" transform="translate(1012.000000, 415.000000)">
                <path d="M37.7219512,19.1853659 C37.7219512,29.4228393 29.4228393,37.7219512 19.1853659,37.7219512 C8.94789244,37.7219512 0.648780488,29.4228393 0.648780488,19.1853659 C0.648780488,8.94789244 8.94789244,0.648780488 19.1853659,0.648780488 C24.101574,0.648780488 28.816427,2.60173655 32.2927111,6.07802064 C35.7689952,9.55430473 37.7219512,14.2691577 37.7219512,19.1853659 Z M21.5117073,0.685853659 C22.3921951,1.85365854 23.3004878,3.00292683 24.1902439,4.16146341 C25.0710748,5.27153537 25.0710748,6.84212317 24.1902439,7.95219512 C23.4906198,8.98758533 22.3256691,9.61166605 21.0760976,9.6204878 L17.3409756,9.6204878 L17.3409756,13.3278049 C17.3409756,13.8194257 17.14568,14.290911 16.7980516,14.6385394 C16.4504232,14.9861678 15.9789379,15.1814634 15.4873171,15.1814634 L11.6965854,15.1814634 L11.6965854,18.935122 L22.9760976,18.935122 C23.9998449,18.935122 24.8297561,19.7650331 24.8297561,20.7887805 L24.8297561,26.4331707 L26.6834146,26.4331707 C28.0832919,26.4215895 29.3703138,27.1995387 30.0107317,28.4443902 C30.7429268,29.8995122 30.3536585,32.0682927 30.4,33.6531707 M17.3409756,37.7126829 L17.3409756,30.2980488 C15.2684841,30.2929816 13.5882269,28.616863 13.5780488,26.5443902 L13.5780488,24.6907317 L4.57853659,15.6541463 L1.58487805,12.5770732" id="Shape"></path>
            </g>
        </g>
    </g>
</svg>