<svg width="479" height="330" viewBox="0 0 479 330" fill="none" xmlns="http://www.w3.org/2000/svg">
<path d="M181.005 188.997C174.841 180.645 165.42 175.336 155.104 174.381C149.229 173.838 141.862 173.26 133.647 172.839C133.194 174.323 132.562 175.757 131.742 177.114C129.36 181.045 125.63 184.072 121.474 185.95C117.315 187.83 112.661 188.681 108.116 188.13C103.665 187.591 99.4311 185.689 96.3562 182.367C93.85 179.658 90.8401 176.382 90.071 172.829C82.6175 173.253 76.7422 173.872 69.7456 174.972C56.3915 177.07 44.6643 185.039 37.6009 196.599C24.6513 217.784 2.2332 254.207 1.0343 284.515C-0.897673 333.36 80.6928 312.292 80.6928 312.292L166.972 305.704L218.419 265.769C218.419 265.769 202.405 217.995 181.005 188.997Z" fill="#1E74F2"/>
<path d="M79.1797 304.011C78.573 308.125 82.7241 311.303 86.5158 309.617C94.2635 306.173 102.658 304.437 111.133 304.522L147.792 304.89C147.792 304.89 150.654 257.506 98.8262 263.23C98.8262 263.23 83.1863 276.879 79.1815 304.01L79.1797 304.011Z" fill="white"/>
<path d="M120.791 305.474C120.771 305.474 120.753 305.474 120.733 305.471C120.517 305.438 120.365 305.237 120.397 305.018C120.782 302.376 120.165 299.441 118.659 296.752C117.397 294.498 115.53 292.37 112.949 290.252C112.46 289.85 111.931 289.435 111.339 289.174C111.138 289.086 111.046 288.852 111.135 288.649C111.223 288.448 111.456 288.356 111.658 288.445C112.345 288.745 112.922 289.198 113.453 289.636C116.111 291.82 118.039 294.02 119.352 296.363C120.943 299.204 121.593 302.318 121.185 305.134C121.156 305.333 120.986 305.474 120.791 305.474Z" fill="black" stroke="black" stroke-width="0.5"/>
<path d="M132.639 304.792C132.444 304.792 132.275 304.649 132.246 304.45C131.802 301.308 131.164 297.63 129.796 294.188C128.382 290.632 126.305 287.729 123.79 285.792C123.617 285.658 123.583 285.408 123.718 285.232C123.852 285.058 124.101 285.024 124.276 285.16C126.903 287.184 129.068 290.203 130.536 293.893C131.935 297.415 132.585 301.149 133.037 304.339C133.067 304.556 132.916 304.759 132.699 304.79C132.679 304.792 132.661 304.794 132.643 304.794L132.639 304.792Z" fill="black" stroke="black" stroke-width="0.5"/>
<path d="M142.131 304.792C142.115 304.792 142.101 304.792 142.084 304.788C141.866 304.763 141.711 304.564 141.736 304.345C143.334 290.918 134.573 282.567 134.485 282.484C134.324 282.333 134.315 282.082 134.465 281.92C134.615 281.759 134.866 281.75 135.026 281.901C135.118 281.986 144.17 290.616 142.525 304.439C142.501 304.641 142.33 304.79 142.131 304.79V304.792Z" fill="black" stroke="black" stroke-width="0.5"/>
<path d="M266.954 317.717H90.0602C89.0129 317.717 87.9639 317.447 87.1008 316.851C85.0786 315.455 84.3762 312.958 85.1761 310.813C87.2615 306.423 91.5732 304.879 97.9469 304.879H278.561L276.217 311.269C274.773 315.146 271.08 317.715 266.954 317.715V317.717Z" fill="white"/>
<path d="M266.954 318.117H90.0601C88.8648 318.117 87.7634 317.793 86.8751 317.181C84.768 315.727 83.9158 313.052 84.8023 310.675C86.8408 306.382 90.8907 304.482 97.9469 304.482H278.561C278.691 304.482 278.812 304.546 278.888 304.652C278.962 304.759 278.98 304.895 278.934 305.018L276.591 311.408C275.096 315.421 271.223 318.115 266.954 318.115V318.117ZM97.9469 305.279C91.2374 305.279 87.4095 307.039 85.5335 310.985C84.7897 312.987 85.5209 315.278 87.3265 316.524C88.0812 317.043 89.0255 317.318 90.0601 317.318H266.954C270.892 317.318 274.466 314.832 275.845 311.131L277.992 305.279H97.9487H97.9469Z" fill="black" stroke="black" stroke-width="0.5"/>
<path d="M267.957 317.717C271.494 317.717 274.675 315.553 275.984 312.258L307.3 233.415C308.131 231.323 307.874 228.953 306.614 227.09C305.354 225.227 303.256 224.109 301.011 224.109H192.294C185.743 224.109 179.902 228.251 177.716 234.445L148.321 317.717H267.958H267.957Z" fill="white"/>
<path d="M267.957 318.117H148.319C148.099 318.117 147.922 317.938 147.922 317.719C147.922 317.5 148.099 317.32 148.319 317.32H267.957C271.351 317.32 274.357 315.276 275.616 312.111L306.932 233.268C307.715 231.296 307.473 229.071 306.287 227.314C305.099 225.558 303.127 224.509 301.013 224.509H202.459C202.239 224.509 202.062 224.33 202.062 224.111C202.062 223.892 202.239 223.713 202.459 223.713H301.013C303.393 223.713 305.61 224.892 306.946 226.869C308.282 228.844 308.553 231.349 307.672 233.565L276.356 312.408C274.978 315.877 271.681 318.119 267.96 318.119L267.957 318.117Z" fill="black" stroke="black" stroke-width="0.5"/>
<path d="M270.501 306.052H162.713C162.493 306.052 162.316 305.873 162.316 305.654C162.316 305.435 162.493 305.255 162.713 305.255H270.501C270.721 305.255 270.898 305.435 270.898 305.654C270.898 305.873 270.721 306.052 270.501 306.052Z" fill="black" stroke="black" stroke-width="0.5"/>
<path d="M36.355 264.49C36.1383 264.49 35.9614 264.317 35.9578 264.099C35.9542 263.878 36.1275 263.697 36.3478 263.694L96.1323 262.555C96.3598 262.548 96.5331 262.725 96.5367 262.946C96.5404 263.167 96.367 263.348 96.1467 263.352L36.3622 264.49H36.355Z" fill="black" stroke="black" stroke-width="0.5"/>
<path d="M56.3211 261.088C56.2832 261.088 56.2453 261.083 56.2073 261.072C55.9979 261.008 55.8787 260.786 55.9401 260.576C58.1176 253.304 61.1203 246.274 64.8633 239.68C65.6325 238.325 66.8729 236.538 68.7326 236.592C68.9511 236.6 69.1244 236.784 69.1172 237.003C69.11 237.224 68.9258 237.4 68.7073 237.389C67.2864 237.337 66.2229 238.897 65.5566 240.074C61.8425 246.617 58.8633 253.592 56.7039 260.805C56.6515 260.978 56.4944 261.09 56.3229 261.09L56.3211 261.088Z" fill="black" stroke="black" stroke-width="0.5"/>
<path d="M106.809 137.017L96.1269 168.342C95.4444 170.345 93.7471 171.828 91.6761 172.232L86.9202 173.159C86.9202 173.159 99.2848 200.085 120.121 195.574C140.959 191.063 136.377 173.159 136.377 173.159L131.969 172.802C129.33 172.589 127.52 170.039 128.183 167.466L133.138 148.214C133.138 148.214 112.946 131.889 106.807 137.015L106.809 137.017Z" fill="white"/>
<path d="M86.922 173.559C86.7361 173.559 86.57 173.427 86.532 173.237C86.4905 173.021 86.6314 172.811 86.8462 172.77L91.6021 171.843C93.5269 171.466 95.1176 170.077 95.7531 168.216L106.433 136.888C106.457 136.819 106.498 136.758 106.554 136.711C112.872 131.434 132.553 147.231 133.389 147.907C133.51 148.004 133.564 148.165 133.524 148.316L128.57 167.567C128.282 168.679 128.501 169.854 129.164 170.789C129.828 171.723 130.863 172.313 132.002 172.406L136.409 172.762C136.628 172.781 136.79 172.973 136.774 173.192C136.756 173.411 136.57 173.575 136.346 173.557L131.939 173.201C130.565 173.088 129.317 172.379 128.517 171.252C127.717 170.124 127.455 168.71 127.8 167.368L132.692 148.368C130.597 146.711 112.751 132.867 107.15 137.256L96.5061 168.473C95.7802 170.604 93.9584 172.194 91.7556 172.625L86.9997 173.552C86.9744 173.557 86.9491 173.559 86.9239 173.559H86.922Z" fill="black" stroke="black" stroke-width="0.5"/>
<path d="M151.813 99.6651C153.638 108.702 146.623 116.898 140.559 118.408C140.344 118.461 140.129 118.509 139.918 118.555C139.788 119.002 139.629 119.451 139.426 119.893C137.039 125.131 130.211 127.679 124.476 127.157C122.813 128.943 120.648 131.427 118.352 134.569C111.017 144.602 105.812 140.09 98.1925 130.156C97.1777 128.834 95.7152 127.145 94.9569 124.344C93.451 118.783 96.0565 113.774 96.3887 113.159C98.875 108.545 102.074 108.717 109.109 103.978C119.802 96.7734 119.989 91.267 129.18 88.1543C131.612 87.3304 134.676 86.3345 138.498 87.0389C144.06 88.062 150.374 92.5272 151.815 99.6651H151.813Z" fill="black"/>
<path d="M114.087 143.485C114.087 143.485 119.262 155.472 132.816 153.257C146.371 151.043 146.714 133.749 145.502 115.371C144.146 117.108 141.115 118.444 138.72 119.466C128.972 123.623 120.206 118.173 118.915 117.474C121.237 120.336 121.241 124.222 119.285 126.853C118.205 128.306 116.171 129.354 112.57 129.415C112.57 129.415 110.853 123.659 105.74 127C100.626 130.341 102.528 144.441 114.085 143.483L114.087 143.485Z" fill="white"/>
<path d="M129.584 153.925C119.316 153.925 114.639 145.5 113.847 143.901C108.818 144.218 104.889 141.67 103.309 137.046C101.912 132.952 102.885 128.394 105.527 126.667C107.161 125.598 108.654 125.3 109.961 125.781C111.72 126.428 112.578 128.285 112.854 129.01C115.802 128.912 117.861 128.108 118.969 126.616C120.898 124.021 120.751 120.364 118.61 117.725C118.491 117.579 118.491 117.367 118.612 117.22C118.733 117.073 118.939 117.034 119.106 117.122C119.173 117.159 119.262 117.209 119.368 117.269C127.741 121.979 134.43 120.863 138.567 119.098C140.671 118.2 143.85 116.845 145.192 115.125C145.293 114.995 145.464 114.942 145.621 114.989C145.778 115.038 145.89 115.179 145.901 115.344C147.041 132.662 147.069 151.332 132.881 153.65C131.724 153.839 130.624 153.925 129.584 153.925ZM114.087 143.086C114.244 143.086 114.389 143.181 114.452 143.325C114.659 143.803 119.675 154.999 132.751 152.863C146.037 150.691 146.221 133.021 145.165 116.318C143.673 117.713 141.256 118.815 138.874 119.831C134.764 121.584 128.245 122.725 120.125 118.58C121.587 121.314 121.432 124.628 119.601 127.092C118.301 128.841 115.938 129.758 112.576 129.814H112.568C112.393 129.814 112.238 129.698 112.188 129.529C112.18 129.506 111.462 127.179 109.678 126.527C108.62 126.14 107.367 126.411 105.955 127.333C103.604 128.869 102.771 133.021 104.057 136.785C105.539 141.125 109.275 143.481 114.053 143.085C114.064 143.085 114.074 143.085 114.085 143.085L114.087 143.086Z" fill="black" stroke="black" stroke-width="0.5"/>
<path d="M113.289 138.466C113.123 138.466 112.969 138.36 112.913 138.196C112.617 137.325 112.31 136.425 111.779 135.684C111.22 134.902 110.467 134.424 109.714 134.371C109.495 134.357 109.329 134.167 109.344 133.946C109.358 133.727 109.555 133.56 109.768 133.577C110.757 133.645 111.727 134.245 112.424 135.219C113.022 136.055 113.348 137.011 113.664 137.937C113.735 138.145 113.625 138.371 113.417 138.442C113.374 138.456 113.33 138.464 113.289 138.464V138.466Z" fill="black" stroke="black" stroke-width="0.5"/>
<path d="M398.292 317.561H68.7182V327.602H398.292V317.561Z" fill="white"/>
<path d="M398.292 328H68.7182C68.4979 328 68.321 327.821 68.321 327.602V317.561C68.321 317.34 68.4979 317.163 68.7182 317.163H398.29C398.511 317.163 398.688 317.342 398.688 317.561V327.602C398.688 327.823 398.511 328 398.29 328H398.292ZM69.1154 327.203H397.893V317.961H69.1154V327.203Z" fill="black" stroke="black" stroke-width="0.5"/>
<path d="M334.193 185.561H220.441L238.963 167.904V98.9913C238.963 92.1916 244.482 86.678 251.288 86.678L333.934 86.4407C340.938 86.4208 346.613 92.1158 346.561 99.113L346.519 173.248C346.519 180.048 341 185.561 334.193 185.561Z" fill="white"/>
<path d="M334.194 186H220.442C220.262 186 220.1 185.89 220.032 185.725C219.967 185.557 220.006 185.368 220.138 185.242L238.524 167.714V98.9913C238.524 91.9582 244.251 86.2373 251.291 86.2373L333.934 86C337.447 86.008 340.733 87.352 343.208 89.8346C345.681 92.3172 347.03 95.6134 347.002 99.1149L346.961 173.248C346.961 180.279 341.234 186 334.194 186ZM221.539 185.121H334.194C340.747 185.121 346.08 179.794 346.08 173.246L346.122 99.1089C346.146 95.8407 344.889 92.7678 342.583 90.4527C340.286 88.1476 337.228 86.8774 333.972 86.8774H333.936L251.291 87.1147C244.736 87.1147 239.404 92.4408 239.404 98.9893V167.902C239.404 168.022 239.354 168.137 239.269 168.221L221.539 185.121Z" fill="black" stroke="black" stroke-width="0.5"/>
<path fill-rule="evenodd" clip-rule="evenodd" d="M319 110H281.899V110.043L266.042 125.966H266V153.907H275.275V163.22H303.101V163.17L318.951 147.254H319V110ZM303.323 119.314H275.275V153.907H309.726V126.056L294.201 141.645L287.642 135.06L303.323 119.314Z" fill="black"/>
</svg>
